<?xml version="1.0" encoding="utf-8"?>
<svg version="1.1" xmlns="http://www.w3.org/2000/svg" xmlns:xlink="http://www.w3.org/1999/xlink" x="0px" y="0px"
	 viewBox="0 0 3400 1000" style="enable-background:new 0 0 3400 1000;" xml:space="preserve">
<style type="text/css">
	.st0{fill:#E20074;}
</style>
<g id="Telekom_Logo">
	<path class="st0" d="M200,660H0V460h200V660z M0,0v340h60v-10c0-160,90-260,260-260h10v720c0,100-40,140-140,140h-30v70h520v-70
		h-30c-100,0-140-40-140-140V70h10c170,0,260,100,260,260v10h60V0H0z M640,660h200V460H640V660z"/>
</g>
<g id="Claim">
	<path class="st0" d="M1712.4482,638.4131c-14.5264-9.2773-31.6621-13.9219-51.4229-13.9219
		c-19.4658,0-36.4541,4.6445-50.9727,13.9219c-14.5264,9.2832-25.6768,22.4551-33.458,39.5205
		c-7.7891,17.0664-11.6768,37.1289-11.6768,60.1797c0,22.7568,3.8877,42.7422,11.6768,59.9551
		c7.7812,17.2207,18.9316,30.3916,33.458,39.5215c14.5186,9.1289,31.5068,13.6973,50.9727,13.6973
		c19.7607,0,36.8965-4.5684,51.4229-13.6973c14.5186-9.1299,25.5986-22.3008,33.2334-39.5215
		c7.6348-17.2129,11.4521-37.1982,11.4521-59.9551c0-23.0508-3.8174-43.1133-11.4521-60.1797
		C1738.0469,660.8682,1726.9668,647.6963,1712.4482,638.4131z M1698.3008,791.1074c-8.3857,12.2803-20.8125,18.4131-37.2754,18.4131
		c-16.168,0-28.4473-6.1328-36.8262-18.4131c-8.3857-12.2725-12.5752-29.9355-12.5752-52.9941
		c0-23.0508,4.1895-40.791,12.5752-53.2178c8.3789-12.4209,20.6582-18.6387,36.8262-18.6387
		c16.4629,0,28.8896,6.2178,37.2754,18.6387c8.3789,12.4268,12.5752,30.167,12.5752,53.2178
		C1710.876,761.1719,1706.6797,778.835,1698.3008,791.1074z M1575.3291,312.0361c-2.9961,20.0615-9.585,37.6543-19.7598,52.7695
		c-10.1826,15.1221-23.2061,26.6514-39.0723,34.5801c-15.873,7.9297-33.3877,11.9014-52.5449,11.9014
		c-25.7529,0-47.9834-6.2871-66.6914-18.8623c-18.7148-12.5742-32.9395-30.5391-42.665-53.8916
		C1344.8633,315.1797,1340,287.335,1340,255c0-32.3359,4.8633-60.1797,14.5957-83.5332
		c9.7256-23.3535,23.9502-41.3174,42.665-53.8926c18.708-12.5752,40.9385-18.8623,66.6914-18.8623
		c19.1572,0,36.6719,3.9717,52.5449,11.9014c15.8662,7.9365,28.8896,19.4658,39.0723,34.5811
		c10.1748,15.1221,16.7637,32.7139,19.7598,52.7695h-50.2988c-3.5928-17.3613-10.8555-30.5391-21.7812-39.5215
		c-10.9336-8.9814-24.0273-13.4727-39.2969-13.4727c-15.873,0-29.3457,4.2666-40.4189,12.7988
		c-11.0801,8.5332-19.4658,20.9609-25.1504,37.2764c-5.6904,16.3213-8.5322,36.3066-8.5322,59.9551
		c0,23.6553,2.8418,43.6397,8.5322,59.9551c5.6846,16.3223,14.0703,28.7422,25.1504,37.2754
		c11.0732,8.5332,24.5459,12.7998,40.4189,12.7998c15.2695,0,28.3633-4.4912,39.2969-13.4736
		c10.9258-8.9814,18.1885-22.1533,21.7812-39.5205H1575.3291z M2940.5732,405h-45.3594V191.2275h45.3594V405z M3041.1709,405
		h-45.3594V191.2275h42.665v27.8438h2.2451c5.6846-11.0732,13.6982-19.6064,24.0273-25.5986
		c10.3291-5.9854,22.0762-8.9824,35.2549-8.9824c22.4551,0,39.0713,6.7373,49.8496,20.21
		c10.7793,13.4727,16.168,32.9395,16.168,58.3838V405h-45.3594V268.4727c0-13.4727-2.7715-23.8721-8.3086-31.2119
		c-5.543-7.334-14.5957-11.0039-27.1699-11.0039c-13.7754,0-24.5537,5.0176-32.3359,15.0449
		c-7.7891,10.0352-11.6768,23.7324-11.6768,41.0938V405z M1500.6953,631.2275h48.9521l-89.3711,243.8623
		c-5.6914,15.8662-13.9229,28.0693-24.7012,36.6016c-10.7783,8.5332-23.957,12.7998-39.5205,12.7998
		c-11.9785,0-22.3076-1.7969-30.9883-5.3896v-36.8262c6.8838,1.7969,14.5186,2.6943,22.9043,2.6943
		c7.4805,0,13.6201-1.7959,18.4131-5.3887c4.7861-3.5928,8.9824-10.0352,12.5752-19.3115l8.1909-21.541L1348,631.2275h48.9521
		l51.1982,146.8564h2.6943L1500.6953,631.2275z M2940.5732,153.9512h-45.3594V104.999h45.3594V153.9512z M1790.2227,237.9336
		c-7.6348-17.0654-18.7148-30.2373-33.2334-39.5205c-14.5264-9.2773-31.6621-13.9229-51.4229-13.9229
		c-19.4658,0-36.4541,4.6455-50.9727,13.9229c-14.5264,9.2832-25.6768,22.4551-33.458,39.5205
		c-7.7891,17.0664-11.6768,37.1289-11.6768,60.1797c0,22.7568,3.8877,42.7422,11.6768,59.9551
		c7.7812,17.2207,18.9316,30.3916,33.458,39.5215c14.5186,9.1289,31.5068,13.6973,50.9727,13.6973
		c19.7607,0,36.8965-4.5684,51.4229-13.6973c14.5186-9.1299,25.5986-22.3008,33.2334-39.5215
		c7.6348-17.2129,11.4521-37.1982,11.4521-59.9551C1801.6748,275.0625,1797.8574,255,1790.2227,237.9336z M1742.8418,351.1074
		c-8.3857,12.2803-20.8125,18.4131-37.2754,18.4131c-16.168,0-28.4473-6.1328-36.8262-18.4131
		c-8.3857-12.2725-12.5752-29.9355-12.5752-52.9941c0-23.0508,4.1895-40.791,12.5752-53.2178
		c8.3789-12.4209,20.6582-18.6387,36.8262-18.6387c16.4629,0,28.8896,6.2178,37.2754,18.6387
		c8.3789,12.4268,12.5752,30.167,12.5752,53.2178C1755.417,321.1719,1751.2207,338.835,1742.8418,351.1074z M2325.3154,398.2637
		c14.0693,8.9814,30.3848,13.4727,48.9521,13.4727c22.75,0,42.0615-5.8379,57.9346-17.5146
		c15.8652-11.6768,26.1953-27.543,30.9873-47.6045h-46.7061c-3.5928,8.3848-8.835,14.75-15.7188,19.0859
		c-6.8906,4.3438-15.7188,6.5127-26.4971,6.5127c-15.5713,0-27.6201-5.9092-36.1533-17.7402
		c-7.3994-10.2534-11.5852-25.7517-12.5679-46.4814h139.4399c0.2949-1.7969,0.4492-4.042,0.4492-6.7363v-8.5332
		c0-21.8516-3.6699-40.9385-11.0029-57.2608c-7.3408-16.3154-17.8174-28.8896-31.4375-37.7246
		c-13.6279-8.8281-29.5703-13.249-47.8291-13.249c-19.1641,0-35.8584,4.4912-50.0752,13.4736
		c-14.2236,8.9814-25.002,22.0059-32.335,39.0723c-7.3408,17.0654-11.0039,37.4297-11.0039,61.0772
		c0,23.3535,3.7402,43.6406,11.2275,60.8535C2300.46,376.1875,2311.2393,389.2812,2325.3154,398.2637z M2375.166,224.0117
		c15.2695,0,27.0928,5.3887,35.4785,16.168c6.1521,7.9138,9.9565,19.1511,11.4326,33.6826h-95.2427
		c1.9231-13.8726,5.6748-24.6653,11.2798-32.336C2346.6475,229.8496,2358.998,224.0117,2375.166,224.0117z M1999.2744,204.7002
		c10.7793,13.4727,16.168,32.9395,16.168,58.3838V405h-45.3594V268.4727c0-13.4727-2.7715-23.8721-8.3086-31.2119
		c-5.543-7.334-14.5957-11.0039-27.1699-11.0039c-13.7754,0-24.5537,5.0176-32.3359,15.0449
		c-7.7891,10.0352-11.6768,23.7324-11.6768,41.0938V405h-45.3594V191.2275h42.665v27.8438h2.2451
		c5.6846-11.0732,13.6982-19.6064,24.0273-25.5986c10.3291-5.9854,22.0762-8.9824,35.2549-8.9824
		C1971.8799,184.4902,1988.4961,191.2275,1999.2744,204.7002z M2882.126,627.6348c6.2881,0,11.5225,0.751,15.7188,2.2451v41.7666
		c-3.8945-0.5967-9.1367-0.8984-15.7188-0.8984c-11.9785,0-21.8584,2.0215-29.6406,6.0635
		c-7.7891,4.042-13.5498,10.0342-17.29,17.9639c-3.7471,7.9365-5.6143,18.041-5.6143,30.3145V845h-45.3594V631.2275h42.665v28.293
		h2.2451c5.3896-10.1748,12.6455-18.0342,21.7822-23.5771C2860.043,630.4062,2870.4492,627.6348,2882.126,627.6348z
		 M2993.0547,808.623c5.6836,0,11.2275-0.7441,16.6162-2.2461v36.8262c-8.3848,3.292-17.2197,4.9404-26.4971,4.9404
		c-15.8721,0-28.1455-4.2666-36.8262-12.7988c-8.6875-8.5332-13.0234-20.7295-13.0234-36.6025V545h45.8086v247.0059
		c0,5.3896,1.2695,9.5088,3.8174,12.3506C2985.4902,807.2051,2988.8584,808.623,2993.0547,808.623z M2806.2939,408.1436
		c-18.2656,0-32.7842-5.459-43.5625-16.3916c-10.7793-10.9268-16.168-26.4199-16.168-46.4824V229.8496h-38.623v-38.6221h38.623
		v-39.0723l36.377-35.9287h9.4316v75.001h57.4844v38.6221h-57.4844v110.4795c0,9.2842,2.2451,16.2451,6.7363,20.8838
		c4.4912,4.6455,11.0732,6.9609,19.7607,6.9609c7.7822,0,16.4619-1.1934,26.0479-3.5928v36.377
		C2834.1387,405.7441,2821.2617,408.1436,2806.2939,408.1436z M3357.335,191.2275v27.3945h-2.6943
		c-5.3896-10.7783-13.3262-19.1572-23.8027-25.1494c-10.4834-5.9854-22.7568-8.9824-36.8262-8.9824
		c-17.6699,0-32.9395,4.4209-45.8086,13.249c-12.877,8.835-22.6797,21.2617-29.416,37.2754
		c-6.7373,16.0205-10.1055,34.96-10.1055,56.8115c0,21.5566,3.3682,40.4189,10.1055,56.5869
		c6.7363,16.168,16.5391,28.5947,29.416,37.2754c12.8691,8.6875,28.1387,13.0244,45.8086,13.0244
		c12.8691,0,24.3213-2.541,34.3564-7.6348c10.0273-5.0879,17.8867-12.126,23.5771-21.1084h2.2461v30.0898
		c0,14.666-3.9717,26.1953-11.9014,34.5811c-7.9365,8.3789-19.8379,12.5752-35.7041,12.5752
		c-11.9785,0-21.6338-2.0215-28.9668-6.0635c-7.3398-4.042-12.3506-9.8096-15.0449-17.29h-46.2578
		c2.3936,11.6768,7.4102,22.1533,15.0449,31.4375c7.6348,9.2764,17.8877,16.6162,30.7637,22.0059
		c12.8701,5.3887,27.6904,8.084,44.4609,8.084c19.7607,0,36.6719-3.5928,50.749-10.7783
		c14.0693-7.1865,24.7002-17.291,31.8857-30.3145C3396.4072,431.2725,3400,416.375,3400,399.6104V191.2275H3357.335z
		 M3342.5146,338.9824c-8.3857,11.3818-20.8135,17.0654-37.2754,17.0654c-16.4697,0-28.8975-5.6836-37.2754-17.0654
		c-8.3857-11.375-12.5752-27.0938-12.5752-47.1562c0-20.3564,4.1895-36.1524,12.5752-47.3799
		c8.3779-11.2285,20.8057-16.8418,37.2754-16.8418c16.4619,0,28.8896,5.6133,37.2754,16.8418
		c8.3779,11.2275,12.5742,27.0235,12.5742,47.3799C3355.0889,311.8887,3350.8926,327.6074,3342.5146,338.9824z M3178.5361,657.2754
		h-2.6943c-5.9932-10.1748-14.0771-18.1885-24.252-24.0273c-10.1816-5.8379-21.8584-8.7568-35.0303-8.7568
		c-17.6689,0-32.7842,4.6445-45.3594,13.9219c-12.5742,9.2832-22.083,22.3848-28.5176,39.2959
		c-6.4424,16.9189-9.6562,37.0518-9.6562,60.4043c0,23.0586,3.2139,43.1143,9.6562,60.1797
		c6.4346,17.0664,15.9434,30.167,28.5176,39.2969c12.5752,9.1289,27.6904,13.6973,45.3594,13.6973
		c14.3711,0,26.792-3.2979,37.2754-9.8799c10.4775-6.582,18.708-15.7188,24.7012-27.3955h2.6943V845h42.665V545h-45.3594V657.2754z
		 M3166.1855,790.8828c-8.2383,12.4277-20.5889,18.6377-37.0508,18.6377c-16.4697,0-28.8193-6.1328-37.0508-18.4131
		c-8.2383-12.2725-12.3506-29.9355-12.3506-52.9941c0-23.0508,4.1123-40.791,12.3506-53.2178
		c8.2314-12.4209,20.5811-18.6387,37.0508-18.6387c16.4619,0,28.8125,6.2178,37.0508,18.6387
		c8.2314,12.4268,12.3506,30.167,12.3506,53.2178C3178.5361,760.8701,3174.417,778.4629,3166.1855,790.8828z M2695.9775,638.4131
		c-14.5264-9.2773-31.6621-13.9219-51.4229-13.9219c-19.4658,0-36.4541,4.6445-50.9727,13.9219
		c-14.5264,9.2832-25.6768,22.4551-33.458,39.5205c-7.7891,17.0664-11.6768,37.1289-11.6768,60.1797
		c0,22.7568,3.8877,42.7422,11.6768,59.9551c7.7812,17.2207,18.9316,30.3916,33.458,39.5215
		c14.5186,9.1289,31.5068,13.6973,50.9727,13.6973c19.7607,0,36.8965-4.5684,51.4229-13.6973
		c14.5186-9.1299,25.5986-22.3008,33.2334-39.5215c7.6348-17.2129,11.4521-37.1982,11.4521-59.9551
		c0-23.0508-3.8174-43.1133-11.4521-60.1797C2721.5762,660.8682,2710.4961,647.6963,2695.9775,638.4131z M2681.8301,791.1074
		c-8.3857,12.2803-20.8125,18.4131-37.2754,18.4131c-16.168,0-28.4473-6.1328-36.8262-18.4131
		c-8.3857-12.2725-12.5752-29.9355-12.5752-52.9941c0-23.0508,4.1895-40.791,12.5752-53.2178
		c8.3789-12.4209,20.6582-18.6387,36.8262-18.6387c16.4629,0,28.8896,6.2178,37.2754,18.6387
		c8.3789,12.4268,12.5752,30.167,12.5752,53.2178C2694.4053,761.1719,2690.209,778.835,2681.8301,791.1074z M1923.2979,631.2275
		h45.8086V845h-43.1143v-27.8447h-2.2451c-5.6914,11.0811-13.6982,19.5361-24.0273,25.375
		c-10.3291,5.8379-22.083,8.7568-35.2549,8.7568c-22.4551,0-39.0713-6.7363-49.8496-20.209
		c-10.7783-13.4736-16.168-32.9316-16.168-58.3838V631.2275h45.3594v136.0781c0,13.4727,2.8418,23.8789,8.5332,31.2119
		c5.6836,7.3408,14.666,11.0029,26.9463,11.0029c13.7676,0,24.5459-5.0869,32.335-15.2695
		c7.7822-10.1748,11.6768-23.8018,11.6768-40.8682V631.2275z M2122.6943,627.6348c6.2881,0,11.5225,0.751,15.7188,2.2451v41.7666
		c-3.8945-0.5967-9.1367-0.8984-15.7188-0.8984c-11.9785,0-21.8584,2.0215-29.6406,6.0635
		c-7.7891,4.042-13.5498,10.0342-17.29,17.9639c-3.7471,7.9365-5.6143,18.041-5.6143,30.3145V845H2024.79V631.2275h42.665v28.293
		h2.2451c5.3896-10.1748,12.6455-18.0342,21.7822-23.5771C2100.6113,630.4062,2111.0176,627.6348,2122.6943,627.6348z
		 M2194.1816,405V268.4727c0-13.4727-2.7715-23.8721-8.3086-31.2119c-5.543-7.334-14.5957-11.0039-27.1699-11.0039
		c-13.7754,0-24.5537,5.0176-32.3359,15.0449c-7.7891,10.0352-11.6768,23.7324-11.6768,41.0938V405h-45.3594V191.2275h42.665
		v27.8438h2.2451c5.6846-11.0732,13.6982-19.6064,24.0273-25.5986c10.3291-5.9854,22.0762-8.9824,35.2549-8.9824
		c22.4551,0,39.0713,6.7373,49.8496,20.21c10.7793,13.4727,16.168,32.9395,16.168,58.3838V405H2194.1816z M2483.3271,631.2275
		h45.3594L2468.5068,845h-46.2578l-38.6221-140.1201h-2.6953L2342.3096,845h-47.1562l-59.7305-213.7725h45.3594l36.8262,142.3652
		h2.6953l37.2754-142.3652h49.4014l37.2754,142.3652h2.6943L2483.3271,631.2275z M2547.3936,397.5898
		c-13.9219-9.1299-24.7002-22.3008-32.335-39.5215c-7.6348-17.2129-11.4521-37.1982-11.4521-59.9551
		c0-23.3525,3.8174-43.4854,11.4521-60.4043c7.6348-16.9111,18.4131-30.0127,32.335-39.2959
		c13.9219-9.2773,30.6094-13.9229,50.0752-13.9229c24.5459,0,44.5312,6.9609,59.9551,20.8838
		c15.417,13.9219,24.7705,32.5596,28.0684,55.9131h-46.2568c-2.4004-11.375-7.1162-20.0547-14.1475-26.0479
		c-7.0381-5.9863-16.2441-8.9824-27.6191-8.9824c-15.2695,0-26.9463,6.2178-35.0303,18.6387
		c-8.084,12.4268-12.126,30.167-12.126,53.2178c0,23.0586,4.042,40.7217,12.126,52.9941
		c8.084,12.2803,19.7607,18.4131,35.0303,18.4131c11.375,0,20.5811-2.9893,27.6191-8.9814
		c7.0312-5.9863,11.5996-14.666,13.6982-26.0479h46.7061c-3.2979,23.3535-12.6514,41.9912-28.0684,55.9131
		c-15.4238,13.9219-35.4092,20.8828-59.9551,20.8828C2578.0029,411.2871,2561.3154,406.7188,2547.3936,397.5898z M3276.8867,845
		v-58.832h58.3828V845H3276.8867z"/>
</g>
</svg>
